HIERARCHY
ROOT Hips
{
	OFFSET 0.000000 71.427986 0.000000
	CHANNELS 6 Xposition Yposition Zposition Xrotation Yrotation Zrotation
	JOINT Pelvis
	{
		OFFSET 0.000000 0.000000 0.000000
		CHANNELS 3 Xrotation Yrotation Zrotation
		JOINT LeftUpLeg
		{
			OFFSET 6.797100 -2.508499 -1.318700
			CHANNELS 3 Xrotation Yrotation Zrotation
			JOINT LeftLeg
			{
				OFFSET 0.069008 -29.241863 0.690200
				CHANNELS 3 Xrotation Yrotation Zrotation
				JOINT LeftFoot
				{
					OFFSET -0.069008 -29.568123 -0.266800
					CHANNELS 3 Xrotation Yrotation Zrotation
					JOINT LeftToeBase
					{
						OFFSET 3.145500 -8.631000 16.059900
						CHANNELS 3 Xrotation Yrotation Zrotation
						End Site
						{
							OFFSET 0.000000 18.501587 0.000000
						}
					}
				}
			}
			JOINT Left_ShortSleeve
			{
				OFFSET 0.265923 -10.480953 1.153800
				CHANNELS 3 Xrotation Yrotation Zrotation
				End Site
				{
					OFFSET 1.725763 19.823879 0.000000
				}
			}
		}
		JOINT RightUpLeg
		{
			OFFSET -6.797100 -2.508499 -1.318700
			CHANNELS 3 Xrotation Yrotation Zrotation
			JOINT RightLeg
			{
				OFFSET -0.082453 -29.241932 0.688000
				CHANNELS 3 Xrotation Yrotation Zrotation
				JOINT RightFoot
				{
					OFFSET 0.082453 -29.568058 -0.264600
					CHANNELS 3 Xrotation Yrotation Zrotation
					JOINT RightToeBase
					{
						OFFSET -3.115300 -8.682800 16.113400
						CHANNELS 3 Xrotation Yrotation Zrotation
						End Site
						{
							OFFSET 0.000000 18.567114 0.000000
						}
					}
				}
			}
			JOINT Right_ShortSleeve
			{
				OFFSET -0.265923 -10.480953 1.153800
				CHANNELS 3 Xrotation Yrotation Zrotation
				End Site
				{
					OFFSET -1.725766 19.823910 0.000000
				}
			}
		}
	}
	JOINT Spine
	{
		OFFSET 0.000000 13.368103 0.470500
		CHANNELS 3 Xrotation Yrotation Zrotation
		JOINT Spine1
		{
			OFFSET 0.147000 13.837402 0.538800
			CHANNELS 3 Xrotation Yrotation Zrotation
			JOINT Spine2
			{
				OFFSET 0.168000 16.242897 -1.435500
				CHANNELS 3 Xrotation Yrotation Zrotation
				JOINT Neck
				{
					OFFSET 0.217200 18.631500 -1.679100
					CHANNELS 3 Xrotation Yrotation Zrotation
					JOINT Head
					{
						OFFSET 0.000000 6.599396 1.385900
						CHANNELS 3 Xrotation Yrotation Zrotation
						JOINT Hat
						{
							OFFSET -0.532200 27.220596 -10.096100
							CHANNELS 3 Xrotation Yrotation Zrotation
							End Site
							{
								OFFSET 0.000000 22.029861 0.000000
							}
						}
						JOINT HairD
						{
							OFFSET -10.777400 17.437393 -1.325900
							CHANNELS 3 Xrotation Yrotation Zrotation
							JOINT HairD1
							{
								OFFSET -3.290299 -11.051193 1.062200
								CHANNELS 3 Xrotation Yrotation Zrotation
								End Site
								{
									OFFSET 0.000000 11.579437 0.000000
								}
							}
						}
						JOINT HairB
						{
							OFFSET -10.777400 17.437393 1.467900
							CHANNELS 3 Xrotation Yrotation Zrotation
							JOINT HairB1
							{
								OFFSET -1.561200 -12.956299 3.590200
								CHANNELS 3 Xrotation Yrotation Zrotation
								End Site
								{
									OFFSET 0.000000 13.534866 0.000000
								}
							}
						}
						JOINT HairA
						{
							OFFSET 9.713100 17.437393 1.467900
							CHANNELS 3 Xrotation Yrotation Zrotation
							JOINT HairA1
							{
								OFFSET 1.561200 -12.956299 3.590200
								CHANNELS 3 Xrotation Yrotation Zrotation
								End Site
								{
									OFFSET 0.000000 13.534866 0.000000
								}
							}
						}
						JOINT HairC
						{
							OFFSET 9.713100 17.437393 -1.325900
							CHANNELS 3 Xrotation Yrotation Zrotation
							JOINT HairC1
							{
								OFFSET 3.290300 -11.051193 1.062200
								CHANNELS 3 Xrotation Yrotation Zrotation
								End Site
								{
									OFFSET 0.000000 11.579437 0.000000
								}
							}
						}
					}
				}
				JOINT LeftShoulder
				{
					OFFSET 5.101800 15.108002 -2.763700
					CHANNELS 3 Xrotation Yrotation Zrotation
					JOINT LeftArm
					{
						OFFSET 9.825497 2.506317 -1.597400
						CHANNELS 3 Xrotation Yrotation Zrotation
						JOINT LeftForeArm
						{
							OFFSET 21.966244 0.000000 0.000000
							CHANNELS 3 Xrotation Yrotation Zrotation
							JOINT LeftHand
							{
								OFFSET 33.879036 0.000000 0.000000
								CHANNELS 3 Xrotation Yrotation Zrotation
								JOINT LeftHandThumb1
								{
									OFFSET 6.715286 -2.359680 3.363841
									CHANNELS 3 Xrotation Yrotation Zrotation
									JOINT LeftHandThumb2
									{
										OFFSET 2.507072 -1.447464 1.447461
										CHANNELS 3 Xrotation Yrotation Zrotation
										JOINT LeftHandThumb3
										{
											OFFSET 2.898338 -1.673355 1.673357
											CHANNELS 3 Xrotation Yrotation Zrotation
											End Site
											{
												OFFSET -0.295959 3.727692 -0.131651
											}
										}
									}
								}
								JOINT LeftHandIndex1
								{
									OFFSET 14.190811 -0.254547 3.840278
									CHANNELS 3 Xrotation Yrotation Zrotation
									JOINT LeftHandIndex2
									{
										OFFSET 3.551727 0.000000 -0.000000
										CHANNELS 3 Xrotation Yrotation Zrotation
										JOINT LeftHandIndex3
										{
											OFFSET 2.894196 0.000000 0.000000
											CHANNELS 3 Xrotation Yrotation Zrotation
											End Site
											{
												OFFSET -1.000603 2.690872 0.366626
											}
										}
									}
								}
								JOINT LeftHandMiddle1
								{
									OFFSET 13.776489 0.000000 0.000000
									CHANNELS 3 Xrotation Yrotation Zrotation
									JOINT LeftHandMiddle2
									{
										OFFSET 3.438232 0.000000 0.000000
										CHANNELS 3 Xrotation Yrotation Zrotation
										JOINT LeftHandMiddle3
										{
											OFFSET 3.691551 0.000000 0.000000
											CHANNELS 3 Xrotation Yrotation Zrotation
											End Site
											{
												OFFSET -1.082298 3.499527 0.457670
											}
										}
									}
								}
								JOINT LeftHandRing1
								{
									OFFSET 13.966164 -0.268127 -3.067488
									CHANNELS 3 Xrotation Yrotation Zrotation
									JOINT LeftHandRing2
									{
										OFFSET 3.162567 0.000000 0.000000
										CHANNELS 3 Xrotation Yrotation Zrotation
										JOINT LeftHandRing3
										{
											OFFSET 3.324348 0.000000 0.000000
											CHANNELS 3 Xrotation Yrotation Zrotation
											End Site
											{
												OFFSET -0.861900 3.184998 0.405154
											}
										}
									}
								}
								JOINT LeftHandPinky1
								{
									OFFSET 13.131393 -0.168503 -5.746925
									CHANNELS 3 Xrotation Yrotation Zrotation
									JOINT LeftHandPinky2
									{
										OFFSET 2.849182 0.000000 0.000000
										CHANNELS 3 Xrotation Yrotation Zrotation
										JOINT LeftHandPinky3
										{
											OFFSET 2.805038 0.000000 0.000000
											CHANNELS 3 Xrotation Yrotation Zrotation
											End Site
											{
												OFFSET -0.882500 2.642609 0.325652
											}
										}
									}
								}
							}
							JOINT Left_Sleeve
							{
								OFFSET 6.592125 -0.646545 0.805568
								CHANNELS 3 Xrotation Yrotation Zrotation
								End Site
								{
									OFFSET -0.000179 20.275787 -0.000000
								}
							}
						}
					}
				}
				JOINT RightShoulder
				{
					OFFSET -5.731700 15.108002 -2.763700
					CHANNELS 3 Xrotation Yrotation Zrotation
					JOINT RightArm
					{
						OFFSET -9.825497 2.506317 -1.597400
						CHANNELS 3 Xrotation Yrotation Zrotation
						JOINT RightForeArm
						{
							OFFSET -21.966242 0.000000 0.000000
							CHANNELS 3 Xrotation Yrotation Zrotation
							JOINT RightHand
							{
								OFFSET -33.879032 0.000000 0.000000
								CHANNELS 3 Xrotation Yrotation Zrotation
								JOINT RightHandThumb1
								{
									OFFSET -6.715286 -2.359680 3.363841
									CHANNELS 3 Xrotation Yrotation Zrotation
									JOINT RightHandThumb2
									{
										OFFSET -2.507072 -1.447464 1.447461
										CHANNELS 3 Xrotation Yrotation Zrotation
										JOINT RightHandThumb3
										{
											OFFSET -2.898338 -1.673355 1.673357
											CHANNELS 3 Xrotation Yrotation Zrotation
											End Site
											{
												OFFSET 0.295959 3.727692 -0.131651
											}
										}
									}
								}
								JOINT RightHandIndex1
								{
									OFFSET -14.190811 -0.254547 3.840278
									CHANNELS 3 Xrotation Yrotation Zrotation
									JOINT RightHandIndex2
									{
										OFFSET -3.551727 0.000000 -0.000000
										CHANNELS 3 Xrotation Yrotation Zrotation
										JOINT RightHandIndex3
										{
											OFFSET -2.894196 0.000000 0.000000
											CHANNELS 3 Xrotation Yrotation Zrotation
											End Site
											{
												OFFSET 1.000603 2.690872 0.366626
											}
										}
									}
								}
								JOINT RightHandMiddle1
								{
									OFFSET -13.776489 0.000000 0.000000
									CHANNELS 3 Xrotation Yrotation Zrotation
									JOINT RightHandMiddle2
									{
										OFFSET -3.438232 0.000000 0.000000
										CHANNELS 3 Xrotation Yrotation Zrotation
										JOINT RightHandMiddle3
										{
											OFFSET -3.691551 0.000000 0.000000
											CHANNELS 3 Xrotation Yrotation Zrotation
											End Site
											{
												OFFSET 1.082298 3.499527 0.457670
											}
										}
									}
								}
								JOINT RightHandRing1
								{
									OFFSET -13.966164 -0.268127 -3.067488
									CHANNELS 3 Xrotation Yrotation Zrotation
									JOINT RightHandRing2
									{
										OFFSET -3.162567 0.000000 0.000000
										CHANNELS 3 Xrotation Yrotation Zrotation
										JOINT RightHandRing3
										{
											OFFSET -3.324348 0.000000 0.000000
											CHANNELS 3 Xrotation Yrotation Zrotation
											End Site
											{
												OFFSET 0.861900 3.184998 0.405154
											}
										}
									}
								}
								JOINT RightHandPinky1
								{
									OFFSET -13.131393 -0.168503 -5.746925
									CHANNELS 3 Xrotation Yrotation Zrotation
									JOINT RightHandPinky2
									{
										OFFSET -2.849182 0.000000 0.000000
										CHANNELS 3 Xrotation Yrotation Zrotation
										JOINT RightHandPinky3
										{
											OFFSET -2.805038 0.000000 0.000000
											CHANNELS 3 Xrotation Yrotation Zrotation
											End Site
											{
												OFFSET 0.882500 2.642609 0.325652
											}
										}
									}
								}
							}
							JOINT Right_Sleeve
							{
								OFFSET -6.592125 -0.646545 0.805568
								CHANNELS 3 Xrotation Yrotation Zrotation
								End Site
								{
									OFFSET 0.000179 20.275787 -0.000000
								}
							}
						}
					}
				}
				JOINT Bind_Right_JacketString
				{
					OFFSET -3.534800 11.969597 7.200700
					CHANNELS 3 Xrotation Yrotation Zrotation
					JOINT Bind_Right_JacketString1
					{
						OFFSET -0.319900 -6.102600 2.794100
						CHANNELS 3 Xrotation Yrotation Zrotation
						End Site
						{
							OFFSET 0.000000 6.719452 0.000000
						}
					}
				}
				JOINT Bind_Left_JacketString
				{
					OFFSET 2.904800 11.969597 7.200700
					CHANNELS 3 Xrotation Yrotation Zrotation
					JOINT Bind_Left_JacketString1
					{
						OFFSET 0.364800 -5.904503 3.186800
						CHANNELS 3 Xrotation Yrotation Zrotation
						End Site
						{
							OFFSET 0.000000 6.719513 0.000000
						}
					}
				}
				JOINT HairE
				{
					OFFSET 5.915200 17.612701 -11.592200
					CHANNELS 3 Xrotation Yrotation Zrotation
					JOINT HairE1
					{
						OFFSET 0.289200 -7.171898 -1.284500
						CHANNELS 3 Xrotation Yrotation Zrotation
						End Site
						{
							OFFSET 0.000000 7.291756 0.000000
						}
					}
				}
				JOINT HairF
				{
					OFFSET -0.864800 17.612701 -11.592200
					CHANNELS 3 Xrotation Yrotation Zrotation
					JOINT HairF1
					{
						OFFSET 0.000000 -14.087097 -2.127501
						CHANNELS 3 Xrotation Yrotation Zrotation
						End Site
						{
							OFFSET 0.000000 14.246841 0.000000
						}
					}
				}
				JOINT HairG
				{
					OFFSET -8.087700 17.612701 -11.592200
					CHANNELS 3 Xrotation Yrotation Zrotation
					JOINT HairG1
					{
						OFFSET -0.293600 -6.081398 -0.910100
						CHANNELS 3 Xrotation Yrotation Zrotation
						End Site
						{
							OFFSET 0.000000 6.156120 0.000000
						}
					}
				}
			}
		}
	}
	JOINT Pouch
	{
		OFFSET 0.000000 4.394501 10.847300
		CHANNELS 3 Xrotation Yrotation Zrotation
		End Site
		{
			OFFSET 0.000000 21.880577 0.000000
		}
	}
	JOINT Bag
	{
		OFFSET -13.229000 4.813004 -0.593300
		CHANNELS 3 Xrotation Yrotation Zrotation
		End Site
		{
			OFFSET 0.000000 21.880577 0.000000
		}
	}
	JOINT OccupyGuyFacialAnim_Joint
	{
		OFFSET 1.000000 -70.206398 -1.655000
		CHANNELS 3 Xrotation Yrotation Zrotation
		End Site
		{
			OFFSET 0.000000 21.880577 0.000000
		}
	}
}
MOTION
Frames: 4
Frame Time: 0.016667
3.423560 63.685776 -1.400512 163.396362 -84.876056 173.346513 0.000000 0.000000 0.000000 -13.523359 19.220458 12.516009 46.040328 9.752675 -7.008390 -21.270893 14.394909 -16.869288 0.000000 0.000002 -0.000000 -0.000000 0.000000 -0.000001 -40.886810 10.463719 -15.857123 48.253203 -3.577742 -8.392431 -13.239801 18.609638 13.990324 -0.000000 0.000000 0.000000 0.000001 -0.000000 -0.000000 26.927712 -10.600776 8.682629 22.828261 -3.476729 1.160360 22.831255 -3.513606 1.117207 5.617718 -1.103828 -3.287034 -24.500421 16.764416 -15.915174 -0.000005 0.000000 0.000000 -0.000005 0.000000 0.000000 -0.000005 0.000000 0.000000 -0.000005 0.000000 0.000001 -0.000003 0.000000 0.000001 -0.000005 0.000000 0.000001 -0.000003 0.000000 0.000001 -0.000005 0.000000 0.000000 -0.000005 0.000000 0.000000 -0.574383 -9.850072 11.644913 7.953480 23.817331 -68.381491 0.000038 -83.763022 -0.000012 -0.593563 -15.951306 -35.333316 -6.141199 -11.690818 -6.761706 9.914128 42.595505 3.409878 -0.000001 0.000001 -0.000002 0.255314 3.378221 -45.814341 5.654070 5.847741 -88.067462 0.000000 0.000001 -0.000002 -0.461472 3.841590 -39.722679 6.450745 5.820347 -95.892844 0.000002 0.000000 0.000001 0.469717 4.966799 -39.799430 8.181051 5.368625 -113.503011 0.000000 0.000000 -0.000001 -3.762434 9.063705 -45.253818 5.342538 5.829003 -85.005311 -0.000002 0.000001 -0.000002 0.000001 -0.000002 -0.000000 6.747074 21.058546 15.296851 -49.806829 49.425872 42.155907 0.000099 110.780976 -0.000091 -30.368640 3.752454 19.633073 -7.341080 13.749666 7.412318 9.855784 -44.489089 -3.903251 0.000000 0.000000 0.000000 -0.124373 -2.384797 45.108857 4.500574 -4.654512 88.071150 0.000002 -0.000001 0.000002 -0.761629 -2.932915 39.031058 5.133885 -4.632750 95.881656 0.000006 -0.000001 0.000001 0.154759 -4.068801 39.122675 6.509733 -4.273606 113.462870 0.000001 -0.000001 -0.000000 -4.198879 -8.025529 44.637769 4.252926 -4.639634 85.014832 0.000003 0.000001 0.000001 0.000001 0.000001 -0.000000 -0.000001 0.000000 -0.000000 -0.000001 0.000000 -0.000001 -0.000001 0.000000 -0.000001 -0.000001 0.000000 -0.000001 -0.000001 0.000000 -0.000000 -0.000001 0.000000 -0.000000 -0.000001 0.000000 -0.000001 -0.000001 0.000000 -0.000001 -0.000001 0.000000 -0.000000 -0.000001 0.000000 -0.000000 0.000000 0.000000 0.000000 0.000000 0.000000 0.000000 0.000000 0.000000 0.000000 
3.373528 63.637794 -1.547826 167.283572 -87.387995 177.316396 0.000000 0.000000 -0.000000 -13.674355 18.940045 12.800972 46.284278 9.752132 -6.457002 -21.090332 12.268983 -17.098641 -0.000000 -0.000002 0.000000 -0.000000 0.000000 -0.000001 -39.691619 10.100288 -16.769779 49.279398 -3.630909 -8.372150 -14.035189 16.782057 14.197469 -0.000000 -0.000001 -0.000000 -0.000002 -0.000000 -0.000000 26.527623 -10.560591 8.582378 22.569698 -3.466837 1.087107 22.571361 -3.500724 1.047263 5.617281 -0.871028 -3.422226 -22.991141 17.514673 -15.694479 -0.000001 -0.000001 -0.000001 -0.000001 -0.000001 -0.000001 -0.000001 -0.000001 -0.000001 -0.000001 -0.000001 -0.000000 0.000000 0.000001 -0.000000 -0.000001 -0.000001 -0.000000 0.000000 0.000001 -0.000000 -0.000001 -0.000001 -0.000001 -0.000001 -0.000001 -0.000001 -0.552082 -9.621079 10.944550 4.435613 26.897731 -66.445453 0.001253 -87.948897 0.001190 -0.585589 -15.037150 -35.679539 -6.141206 -11.690816 -6.761708 9.914131 42.595498 3.409875 0.000001 0.000001 -0.000000 0.255316 3.378222 -45.814341 5.654070 5.847736 -88.067455 -0.000001 0.000000 0.000002 -0.461469 3.841592 -39.722679 6.450741 5.820346 -95.892837 0.000003 0.000001 0.000001 0.469716 4.966801 -39.799437 8.181055 5.368625 -113.503011 0.000000 0.000000 -0.000001 -3.762432 9.063706 -45.253818 5.342542 5.829007 -85.005311 0.000001 0.000000 0.000001 0.000000 -0.000001 0.000002 6.677396 21.397933 15.512674 -47.870757 45.703979 40.482927 0.000077 111.430397 -0.000091 -31.320099 4.487732 19.907223 -7.341084 13.749669 7.412325 9.855781 -44.489086 -3.903254 0.000002 -0.000001 0.000005 -0.124374 -2.384797 45.108857 4.500570 -4.654516 88.071150 0.000005 -0.000001 0.000000 -0.761630 -2.932919 39.031055 5.133885 -4.632755 95.881656 0.000003 0.000001 -0.000001 0.154755 -4.068800 39.122668 6.509735 -4.273612 113.462870 -0.000002 -0.000000 0.000001 -4.198881 -8.025531 44.637762 4.252927 -4.639626 85.014832 0.000003 0.000000 -0.000001 0.000000 0.000002 -0.000002 -0.000001 -0.000000 0.000000 -0.000002 0.000000 0.000000 -0.000001 -0.000000 0.000000 -0.000001 -0.000000 0.000000 -0.000001 -0.000000 0.000000 -0.000002 0.000000 0.000001 -0.000001 -0.000000 0.000000 -0.000001 -0.000000 0.000000 -0.000001 -0.000000 0.000000 -0.000002 0.000000 0.000001 0.000000 0.000000 -0.000000 0.000000 0.000000 -0.000000 0.000000 0.000000 -0.000000 
3.327463 63.611076 -1.686069 93.680252 -90.330153 103.784417 -0.000000 -0.000000 0.000000 -13.887493 18.604392 13.104439 46.459958 9.752850 -5.914184 -20.877633 9.977536 -17.271515 -0.000000 0.000000 -0.000000 -0.000000 0.000002 0.000000 -38.357086 9.617369 -17.746889 50.176264 -3.701429 -8.296402 -14.778981 14.864100 14.401160 -0.000000 -0.000000 0.000000 0.000001 0.000000 -0.000000 26.026033 -10.557077 8.490412 22.258185 -3.473024 1.011009 22.258236 -3.504558 0.974827 5.582352 -0.609719 -3.490643 -21.431940 18.334321 -15.324465 -0.000001 0.000001 -0.000000 -0.000001 0.000001 -0.000000 -0.000001 0.000001 0.000000 -0.000001 0.000001 0.000000 0.000002 0.000001 -0.000001 -0.000001 0.000001 0.000000 0.000002 0.000001 -0.000001 -0.000001 0.000001 -0.000000 -0.000001 0.000001 -0.000000 -0.520518 -9.531915 10.234648 1.463536 28.835467 -64.955072 -0.031694 -92.579526 -0.031626 -0.628411 -14.115759 -35.772388 -6.141204 -11.690816 -6.761706 9.914131 42.595501 3.409877 -0.000000 -0.000000 -0.000001 0.255316 3.378227 -45.814337 5.654074 5.847736 -88.067455 -0.000000 0.000003 0.000002 -0.461471 3.841590 -39.722686 6.450742 5.820344 -95.892844 -0.000001 0.000001 0.000003 0.469717 4.966802 -39.799434 8.181054 5.368627 -113.503011 -0.000001 0.000000 -0.000003 -3.762434 9.063707 -45.253821 5.342540 5.829007 -85.005324 0.000001 -0.000001 0.000003 0.000000 -0.000001 0.000002 6.665675 21.639405 15.541470 -46.863796 42.548353 39.774466 0.000075 111.812703 -0.000081 -31.896276 5.342540 20.119371 -7.341078 13.749667 7.412328 9.855783 -44.489086 -3.903247 0.000001 0.000000 0.000003 -0.124369 -2.384797 45.108857 4.500573 -4.654521 88.071157 -0.000001 -0.000001 0.000002 -0.761631 -2.932913 39.031048 5.133886 -4.632751 95.881656 0.000004 0.000000 -0.000002 0.154757 -4.068800 39.122675 6.509735 -4.273607 113.462863 -0.000001 -0.000001 -0.000002 -4.198879 -8.025529 44.637762 4.252926 -4.639632 85.014832 -0.000000 0.000001 -0.000001 0.000000 0.000001 0.000001 0.000000 -0.000001 0.000000 0.000000 -0.000001 -0.000000 0.000000 -0.000001 -0.000000 0.000000 -0.000001 -0.000000 0.000000 -0.000001 0.000000 0.000000 -0.000001 0.000000 0.000000 -0.000001 -0.000000 0.000000 -0.000001 -0.000000 0.000000 -0.000001 0.000000 0.000000 -0.000001 0.000000 -0.000000 -0.000000 0.000000 -0.000000 -0.000000 0.000000 -0.000000 -0.000000 0.000000 
3.279220 63.599701 -1.812123 155.497603 -92.958130 165.696810 -0.000000 0.000000 -0.000001 -14.121658 18.268512 13.420809 46.567069 9.753255 -5.462565 -20.652323 7.541993 -17.363201 0.000000 -0.000001 -0.000000 -0.000001 0.000003 -0.000002 -36.951303 9.046377 -18.792774 50.970519 -3.783549 -8.133148 -15.477087 12.961305 14.578436 0.000000 0.000001 -0.000000 0.000003 -0.000000 0.000001 25.432597 -10.607161 8.351811 21.901884 -3.506259 0.903643 21.899858 -3.536337 0.871496 5.510143 -0.303583 -3.526252 -19.806037 19.269313 -14.830554 -0.000004 0.000000 -0.000000 -0.000004 0.000000 -0.000000 -0.000004 0.000000 -0.000000 -0.000004 0.000000 0.000001 -0.000000 0.000000 -0.000001 -0.000004 0.000000 0.000001 -0.000000 0.000000 -0.000001 -0.000004 0.000000 -0.000000 -0.000004 0.000000 -0.000000 -0.487521 -9.491404 9.564244 -0.653352 29.569795 -64.021091 0.000521 -97.278730 0.000477 -0.727243 -13.207225 -35.636765 -6.141199 -11.690813 -6.761706 9.914124 42.595495 3.409874 -0.000002 -0.000000 0.000001 0.255317 3.378223 -45.814337 5.654069 5.847735 -88.067455 0.000002 -0.000001 -0.000000 -0.461469 3.841590 -39.722679 6.450741 5.820344 -95.892837 -0.000000 -0.000002 -0.000001 0.469719 4.966800 -39.799430 8.181055 5.368624 -113.503011 -0.000003 0.000000 -0.000004 -3.762433 9.063706 -45.253811 5.342537 5.829005 -85.005317 -0.000002 -0.000003 -0.000001 -0.000001 0.000001 -0.000003 6.712785 21.856313 15.378782 -46.521552 39.994132 39.770064 -0.000045 111.959047 0.000040 -32.012438 6.164914 20.344921 -7.341071 13.749666 7.412320 9.855790 -44.489093 -3.903254 -0.000002 -0.000002 -0.000001 -0.124365 -2.384795 45.108857 4.500572 -4.654514 88.071150 0.000001 0.000000 0.000002 -0.761625 -2.932914 39.031055 5.133885 -4.632750 95.881656 0.000002 0.000001 -0.000001 0.154759 -4.068800 39.122668 6.509735 -4.273603 113.462870 0.000004 -0.000002 0.000001 -4.198875 -8.025530 44.637766 4.252927 -4.639631 85.014832 -0.000001 0.000000 -0.000001 -0.000001 0.000000 0.000001 0.000000 0.000000 -0.000000 0.000000 0.000000 0.000001 0.000000 0.000000 0.000000 0.000000 0.000000 0.000000 0.000000 0.000000 -0.000000 0.000000 0.000000 0.000001 0.000000 0.000000 0.000000 0.000000 0.000000 0.000000 0.000000 0.000000 -0.000000 0.000000 0.000000 0.000001 -0.000000 0.000000 -0.000001 -0.000000 0.000000 -0.000001 -0.000000 0.000000 -0.000001 
